<?xml version="1.0" encoding="utf-8"?>
<!-- Generator: Adobe Illustrator 23.0.5, SVG Export Plug-In . SVG Version: 6.00 Build 0)  -->
<svg version="1.1" id="Capa_1" xmlns="http://www.w3.org/2000/svg" xmlns:xlink="http://www.w3.org/1999/xlink" x="0px" y="0px"
	 viewBox="0 0 1280 1920" style="enable-background:new 0 0 1280 1920;" xml:space="preserve">
<style type="text/css">
	.st0{fill:#97BAE3;}
	.st1{fill:#A8DBEF;}
	.st2{fill:#68BCEA;}
	.st3{fill:#3E96D2;}
	.st4{fill:#3E77BC;}
	.st5{fill:#9BD1C5;}
	.st6{fill:#A0CA71;}
	.st7{fill:#EFAC80;}
	.st8{fill:#F18661;}
	.st9{fill:#452D87;}
	.st10{fill:#2E255B;}
	.st11{fill:#D29369;}
	.st12{fill:#5E2F13;}
	.st13{fill:#7170B2;}
	.st14{fill:#F4A493;}
	.st15{fill:#282929;}
	.st16{fill:#97A65F;}
	.st17{fill:#13375A;}
	.st18{fill:#F18C7F;}
	.st19{fill:#486EB5;}
	.st20{fill:#F4A492;}
	.st21{fill:#FFFFFF;}
	.st22{fill:#EFEFEF;}
</style>
<path class="st0" d="M1278.41,725c-243-11-525-481-536-727c128,0,536,0,536,0V725z"/>
<path class="st1" d="M642.45,1923c-24.97-29.7-205.18-151.3-183.83-264.14c33.24-175.62-12.36-305.28-20.16-570.68
	c-11.17-380.1-182-329.88-237.88-503.34C130.27,366.57,69.16,287.14,4.44,276.75c0,198.22,0,1661.47,0,1661.47L642.45,1923z"/>
<g>
	<path class="st2" d="M729.72,1505.39c0,15.03-43.05,27.21-96.16,27.21c-53.11,0-96.16-12.18-96.16-27.21
		c0-15.03,43.05-27.21,96.16-27.21C686.66,1478.18,729.72,1490.37,729.72,1505.39z"/>
	<path class="st2" d="M537.39,1459.48c0,15.03-99.58,27.21-222.42,27.21s-222.42-12.18-222.42-27.21
		c0-15.03,99.58-27.21,222.42-27.21S537.39,1444.46,537.39,1459.48z"/>
	<path class="st2" d="M1005.41,1459.48c0,15.03-51.53,27.21-115.1,27.21c-63.57,0-115.11-12.18-115.11-27.21
		c0-15.03,51.53-27.21,115.11-27.21C953.88,1432.27,1005.41,1444.46,1005.41,1459.48z"/>
	<g>
		<g>
			<path class="st3" d="M490.48,665.88c-0.19,0-0.39-0.09-0.51-0.25c-0.22-0.28-0.17-0.69,0.12-0.91c0.08-0.07,8.46-6.37,20.04-0.76
				c0.32,0.16,0.46,0.54,0.3,0.87c-0.15,0.32-0.54,0.46-0.86,0.3c-10.84-5.25-18.37,0.37-18.68,0.62
				C490.76,665.84,490.62,665.88,490.48,665.88z"/>
		</g>
		<path class="st4" d="M673.58,1338.67c-238.04-124.4-319.21-253.31-345.05-340.84h152.89c-0.87,13.74-4.94,27.21-11.85,39.13
			c-3.4,5.6-5.2,12.09-5.2,18.72c0,19.99,16.26,36.26,36.26,36.26c19.99,0,36.26-16.26,36.26-36.26c0-6.63-1.81-13.12-5.23-18.77
			c-6.88-11.87-10.96-25.34-11.83-39.08h153.75v142.44l2.82-0.25c13.64-1.22,27.11-5.49,38.95-12.35c4.88-2.96,10.44-4.5,16.13-4.5
			c17.14,0,31.08,13.94,31.08,31.07c0,17.13-13.94,31.08-31.08,31.08c-5.69,0-11.25-1.55-16.08-4.48
			c-11.89-6.89-25.35-11.16-38.99-12.38l-2.82-0.25V1338.67z"/>
		<g>
			<path class="st2" d="M678.76,1173.9c12.03,1.45,23.46,5.27,33.99,11.38c5.6,3.39,12.09,5.2,18.72,5.2
				c19.99,0,36.26-16.26,36.26-36.26s-16.26-36.26-36.26-36.26c-6.63,0-13.12,1.81-18.77,5.23c-10.49,6.08-21.91,9.9-33.94,11.35
				V997.83H859.8l0.08-2.5c0.59-17.7-3.8-35.15-12.68-50.47c-2.96-4.88-4.5-10.44-4.5-16.12c0-17.14,13.94-31.08,31.07-31.08
				c17.13,0,31.08,13.94,31.08,31.08c0,5.69-1.55,11.25-4.48,16.08c-8.91,15.36-13.29,32.81-12.7,50.51l0.08,2.5h136.04
				c-25.84,87.53-107,216.45-345.04,340.84V1173.9z"/>
			<path class="st5" d="M678.11,1339.74v-166.56l0.72,0.09c12.12,1.46,23.64,5.32,34.24,11.46c5.53,3.35,11.88,5.12,18.4,5.12
				c19.63,0,35.61-15.97,35.61-35.61c0-19.63-15.97-35.61-35.61-35.61c-6.51,0-12.89,1.78-18.43,5.14
				c-10.58,6.13-22.09,9.98-34.2,11.44l-0.72,0.09V997.18h181.06l0.06-1.88c0.58-17.58-3.77-34.91-12.59-50.12
				c-3-4.95-4.59-10.65-4.59-16.45c0-17.49,14.23-31.72,31.72-31.72c17.49,0,31.72,14.23,31.72,31.72c0,5.8-1.58,11.48-4.57,16.42
				c-8.83,15.23-13.19,32.58-12.61,50.16l0.06,1.88h136.29l-0.25,0.83c-25.59,86.71-106.29,216.3-345.37,341.23L678.11,1339.74z
				 M679.41,1174.64v162.96c237.17-124.17,317.77-252.78,343.53-339.12h-135.8l-0.1-3.13c-0.59-17.82,3.83-35.41,12.79-50.86
				c2.87-4.74,4.39-10.19,4.39-15.76c0-16.78-13.65-30.43-30.43-30.43c-16.78,0-30.43,13.65-30.43,30.43
				c0,5.57,1.52,11.03,4.41,15.79c8.95,15.43,13.36,33.01,12.77,50.83l-0.1,3.13H679.41v135.35c11.68-1.5,22.76-5.26,32.97-11.18
				c5.74-3.48,12.34-5.32,19.09-5.32c20.35,0,36.9,16.56,36.9,36.9c0,20.35-16.55,36.9-36.9,36.9c-6.75,0-13.34-1.83-19.06-5.3
				C702.19,1179.91,691.09,1176.14,679.41,1174.64z"/>
		</g>
		<path class="st6" d="M500.63,1086.75c-17.14,0-31.08-13.94-31.08-31.08c0-5.68,1.55-11.25,4.48-16.08
			c7.81-13.47,12.19-28.76,12.7-44.27l0.09-2.67H327.06c-6.72-24.38-10.13-48.9-10.13-72.9c0-55.77,17.65-107.92,49.7-146.84
			c33.01-40.09,78.69-62.16,128.62-62.16c61.23,0,106.53,25.52,133.75,46.93c26.92,21.17,41.97,42.61,44.58,46.48v65.87
			c-10.95-1.7-21.37-5.38-30.99-10.97c-5.6-3.4-12.09-5.2-18.72-5.2c-19.99,0-36.26,16.27-36.26,36.26
			c0,19.99,16.26,36.26,36.26,36.26c6.63,0,13.12-1.81,18.77-5.23c9.59-5.56,20-9.24,30.95-10.94v82.44H514.44l0.09,2.67
			c0.51,15.51,4.89,30.81,12.68,44.23c2.96,4.88,4.5,10.44,4.5,16.12C531.71,1072.81,517.77,1086.75,500.63,1086.75z"/>
		<g>
			<g>
				<path class="st7" d="M496.11,696.97c-7.31,1.18-6.88,2.37-7.82,2.5c-1.11,0.15-14.31-6.46-14.31-6.46s-39.02-19.21-41.09-20.32
					l-28.17-35.34l-21.71,9.98c0,0,31.68,37.57,33.68,39.22c2,1.66,57.96,21.22,62.82,23.11c0,0,4.91,4.47,8.08,7.17
					c3.17,2.7,7.42,3.77,8.43,4.39c0.15,0.09,3.65,1.93,8.6,3.01c4.26,0.93,0.71-1.96,0.71-1.96s-7.54-3.18-7.17-3.75
					c0.29-0.44,4.3,1.54,9,2.62c1.21,0.28,2.41,0.54,3.51,0.78c2.89,0.62,4.16-1.03,1.26-2.17c-1.02-0.41-2.74-1.04-4.04-1.3
					c-1.4-0.29-2.57-1.02-3.71-1.45c-2.25-0.85-3.9-1.45-3.81-1.52c0.12-0.1-0.2-0.6,1.09-0.34c1.56,0.3,4.7,1.7,7.03,1.96
					c1.32,0.15,4.06,0.63,4.06,0.63s4.84,0.46,4.87-0.21c0.07-1.48-2.91-2.3-4.74-2.27c-1.15-0.59-4.05-1.01-4.05-1.01
					s-5.62-2.21-5.29-3.04c0.13-0.33,3.53,0.18,7.14,0.42c3.81,0.26,6.57,0.26,6.78-0.48c0.32-1.17-2.71-1.61-2.71-1.61
					s-2.68-0.39-3.55-0.59c-1.03-0.23-4.04-1.18-4.04-1.18s-10.33-3.78-9.95-4.54c0.37-0.76,2.08-2.35,2.81-2.35
					c0.73,0,2.03,0.73,2.76,0.73c0.73,0,2.3-0.14,2.4-1.05c0.11-0.91-3.93-2.81-3.93-2.81S498.22,696.62,496.11,696.97z"/>
				<path class="st4" d="M424.32,659.23c0,0-7.03,6.37-9.95,8.46c-2.43,1.74-14.27,7.43-14.27,7.43s-11.78-17.99-16.93-27.01
					c-6.25-10.94-10.58-27.22-9.1-27.66c4.15-1.24,9.85-2,15.12,0.42C407.42,629.22,424.32,659.23,424.32,659.23z"/>
				<path class="st8" d="M489.28,706.37c3.13,0.49,6.32-0.1,7.71-2.95C497.3,706.8,492.16,708.48,489.28,706.37z"/>
			</g>
			<path class="st7" d="M309.3,933.54c0,0-0.78,13.77-0.78,13.8c-0.29,1.75-1.42,6.07-1.42,7.66c0,5.97,26.57-5.07,20.61-7.72
				c-0.54-0.24-3.36-2.05-3.54-4.08c-0.27-3.13-0.97-9.47-0.97-9.47L309.3,933.54z"/>
			<path class="st9" d="M327.65,947.23c0,0-6.24,1.83-9.43,2.28c-3.2,0.46-7.41-3.39-9.67-2.35c-2.49,1.14-2.39,11.43-2.39,11.43
				s33.45,2.93,42.86-0.1C352.74,957.29,340.4,951.48,327.65,947.23z"/>
			<path class="st7" d="M266.6,932.71c0,0-0.78,13.77-0.78,13.8c-0.29,1.75-1.42,6.07-1.42,7.66c0,5.97,26.57-5.07,20.61-7.71
				c-0.54-0.24-4.2-3.4-4.38-5.44c-0.27-3.13-0.13-8.11-0.13-8.11L266.6,932.71z"/>
			<path class="st9" d="M284.95,946.4c0,0-6.24,1.83-9.43,2.28c-3.19,0.46-7.41-3.39-9.67-2.35c-2.49,1.14-2.59,11.43-2.59,11.43
				s33.21,1.36,43.05-0.1C310.19,957.09,297.7,950.65,284.95,946.4z"/>
			<path class="st10" d="M272.62,715.49c0,0-4.5,23.23-2.67,40.84c1.83,17.61,1.98,80.19,1.98,80.19l-7,100.12l16.61,0.39
				c0,0,19.7-100.07,19.33-97.5c-0.37,2.57,6.61-70.46,6.61-70.46l-23.49-55.78L272.62,715.49z"/>
			<path class="st9" d="M278.92,700.49c0,0-20.4,21.42-12.81,44.82c3.05,9.4,31.47,99.19,31.84,106.53
				c0.37,7.34,9.61,88.46,9.61,88.46l19.32-0.58l4.18-90.19l-5.52-121.52l-11.73-20.49L278.92,700.49z"/>
			<path class="st3" d="M402.75,631.01c-6.68-7.43-21.22-18.25-21.22-18.25s-8.66-7.38-12.19-8.59c-5.2-1.79-14.1-6.55-26.97,12.9
				c-9.21,13.92-67.35,86.01-76.89,88.44l62.32,29.73c1.71-14.2,32.51-41.02,36.94-46.03C374.65,678.02,409.08,638.05,402.75,631.01
				z"/>
			<g>
				<path class="st7" d="M399.85,600.56l-19.41,11.33c0,0-0.55,16.52,5.8,20.81c5.32,3.6,9.38-5.04,9.38-5.04s7.22-9.97,12.7-13.08
					C413.8,611.47,399.85,600.56,399.85,600.56z"/>
				<path class="st11" d="M396.59,607.83c0.73,3.45,2.42,8.43,5.04,12.54c2.14-2.31,4.54-4.57,6.69-5.79
					c2.53-1.43,0.92-4.53-1.55-7.45c-3.48-3.62-6.92-6.57-6.92-6.57l-3.73,2.18C395.88,604.15,396.35,606.68,396.59,607.83z"/>
				<path class="st7" d="M409.96,572.16c-0.33-0.4-16.28,19.4-14.32,28.69c1.97,9.29,11.61,17.77,18.32,15.44
					c7.42-2.58,21.21-25.9,16.26-37.22C425.28,567.75,409.96,572.16,409.96,572.16z"/>
				<path class="st12" d="M427.43,565.91c-6.96-3.86-18.3-4.97-26.78-0.54c-10.42,5.44-12.8,19.13-9.53,27.49
					c3.26,8.35-0.47,13.07-0.47,13.07l5.53-3.22c0,0,3.23-5.03,3.65-9.03c0.42-4.01,6.28-3.3,9.14-5.11c2.2-1.4,5.02-5.95,8.58-8.31
					c0,0,8.98-1.1,13.39,1.37C438.46,585.84,437.39,571.44,427.43,565.91z"/>
			</g>
			<path class="st7" d="M458.25,726.13c-7.62-0.92-7.61-0.31-8.59-0.45c-1.15-0.17-13-10.34-13-10.34s-35.12-29.75-36.96-31.42
				l-19.27-42.58l-25.44,3.78c0,0,23.71,50.06,25.37,52.24c1.66,2.18,53.76,32.55,58.25,35.77c0,0,3.97,5.74,6.58,9.27
				c2.61,3.53,6.65,5.77,7.54,6.66c0.13,0.13,3.26,2.92,8.01,5.36c4.09,2.11,1.14-1.71,1.14-1.71s-6.91-5.23-6.41-5.68
				c0.38-0.35,3.99,2.72,8.5,5.1c1.16,0.61,2.3,1.21,3.36,1.75c2.77,1.42,4.41,0.18,1.74-1.76c-0.94-0.68-2.54-1.79-3.79-2.41
				c-1.35-0.68-2.37-1.73-3.42-2.46c-2.08-1.47-3.5-2.43-3.39-2.48c0.14-0.06-0.19-0.72,1.06-0.11c1.5,0.74,4.36,2.99,6.65,3.9
				c1.3,0.52,3.95,1.76,3.95,1.76s3.91,0.5,4.06,0.27c0.8-1.22-1.53-2.17-3.38-2.65c-1.03-0.9-3.86-2.13-3.86-2.13
				s-5.18-3.74-4.67-4.46c0.19-0.27,3.24,1.8,6.98,3.2c4.27,1.6,6.32,0.73,6.7,0.04c0.58-1.05-2.03-1.69-2.03-1.69
				s-3.58-0.87-4.42-1.31c-0.98-0.52-12.42-9.16-11.88-9.8c0.54-0.63,2.3-0.64,3.04-0.43c0.73,0.21,2.03,0.73,2.76,0.95
				c0.73,0.21,2.02-0.64,2.33-1.5c0.31-0.86-2.43-2.42-2.43-2.42S460.45,726.4,458.25,726.13z"/>
			<path class="st2" d="M359.02,665.82c0,0,7.32-2.32,12.01-4.47c3.14-1.44,16.86-8.24,16.86-8.24s-5.91-24.87-9.91-33.82
				c-14.67-32.82-31.34-10.19-33.6-4.91C339.32,626.19,359.02,665.82,359.02,665.82z"/>
		</g>
		<path class="st13" d="M892.81,992.65c-0.08-15.87,4.05-31.44,12.03-45.2c3.39-5.6,5.2-12.09,5.2-18.72
			c0-19.99-16.26-36.26-36.26-36.26c-19.99,0-36.25,16.26-36.25,36.26c0,6.63,1.81,13.12,5.23,18.77
			c7.95,13.71,12.09,29.29,12,45.15h-176V904.3l-2.9,0.36c-12.72,1.56-24.78,5.6-35.87,12.03c-4.88,2.96-10.44,4.5-16.12,4.5
			c-17.14,0-31.08-13.94-31.08-31.08c0-17.14,13.94-31.08,31.08-31.08c5.68,0,11.25,1.55,16.08,4.48
			c11.13,6.45,23.19,10.5,35.91,12.05l2.9,0.36v-71.77c2.61-3.87,17.66-25.31,44.58-46.48c27.22-21.41,72.52-46.93,133.75-46.93
			c49.94,0,95.61,22.08,128.62,62.16c32.05,38.92,49.7,91.07,49.7,146.84c0,24-3.41,48.51-10.13,72.9H892.81z"/>
		<g>
			<path class="st13" d="M1026.41,1107.59h-52.74c-2.61,0-4.73-2.12-4.73-4.73l0,0c0-2.61,2.12-4.73,4.73-4.73h52.74
				c2.61,0,4.73,2.12,4.73,4.73l0,0C1031.14,1105.47,1029.02,1107.59,1026.41,1107.59z"/>
			<path class="st9" d="M1031.59,1115.06h-63.1c-2.61,0-4.73-2.12-4.73-4.73l0,0c0-2.61,2.12-4.73,4.73-4.73h63.1
				c2.61,0,4.73,2.12,4.73,4.73l0,0C1036.32,1112.94,1034.2,1115.06,1031.59,1115.06z"/>
			<g>
				<path class="st7" d="M846.57,1429.84c0,0-4.86,4.8-4.97,6.57c-0.11,1.76-0.43,20.65,1.55,22.41c1.98,1.76,7.81,3.01,5.94,5
					c-1.42,1.5-12.3,1.18-19.52,0.78c-2.11-0.12-4.75-17.15-5.58-19.66c-1.21-3.64-5.58-11.55-4.48-14.09
					c0.54-1.23,4.52-4.05,8.14-6.42c3.81-2.49,7.45-8.04,7.45-8.04L846.57,1429.84z"/>
				<path class="st7" d="M911.55,1441.64c0,0-4.35,12.45-4.35,12.48c-0.32,1.97-1.6,6.84-1.6,8.64c0,6.73,29.96-5.72,23.25-8.7
					c-0.61-0.27-2.51-2.43-2.72-4.72c-0.31-3.53,2.52-7.96,2.52-7.96L911.55,1441.64z"/>
				<g>
					<path class="st10" d="M952.9,1205.32l10.85,28.09c0,0,7.08,67.05,2.96,107.19c-1.72,16.79-39.04,106.64-39.04,106.64
						l-18.53-2.65l24.82-106.41l-9.14-40.69l-12.93-80.43L952.9,1205.32z"/>
					<path class="st9" d="M901.79,1206.79l-9.31,31.28l-14.16,94.42l-47.87,88.33c0,0,7.2,11.05,14.93,12.79l67.94-89.27
						l36.82-111.75l-1.29-24.83L901.79,1206.79z"/>
				</g>
				<path class="st14" d="M1044.67,1154.71c-5.57,2.52-5,3.57-5.72,3.87c-0.85,0.35-12.59-3.38-12.59-3.38s-34.63-10.71-36.48-11.37
					l-29.1-28.09l-15.31,13.64c0,0,32.31,29.54,34.22,30.72c1.91,1.18,50.04,8.98,54.26,9.84c0,0,4.75,3.3,7.78,5.25
					c3.03,1.95,6.61,2.15,7.53,2.54c0.14,0.06,3.27,1.13,7.4,1.2c3.56,0.06,0.19-2,0.19-2s-6.59-1.56-6.41-2.18
					c0.14-0.47,3.7,0.64,7.64,0.75c1.01,0.03,2.01,0.05,2.93,0.07c2.41,0.04,3.1-1.77,0.58-2.3c-0.89-0.19-2.38-0.45-3.45-0.46
					c-1.17-0.01-2.24-0.47-3.22-0.66c-1.95-0.38-3.37-0.62-3.31-0.71c0.07-0.12-0.27-0.53,0.8-0.54c1.29-0.01,4.05,0.71,5.95,0.51
					c1.08-0.11,3.34-0.18,3.34-0.18s3.66-0.6,3.68-0.86c0.12-1.42-2.6-1.91-4.04-1.52c-1.03-0.33-3.41-0.18-3.41-0.18
					s-4.88-1.02-4.78-1.86c0.08-0.7,12.12-1.03,12.16-2.46c0.03-1.17-3.59-1.27-3.59-1.27s-2.2,0.15-2.93,0.13
					c-0.86-0.02-3.43-0.34-3.43-0.34s-8.92-1.6-8.77-2.39c0.15-0.79,1.2-2.63,1.78-2.77c0.58-0.14,1.75,0.3,2.33,0.17
					c0.58-0.14,1.23-0.92,1.15-1.81c-0.09-0.89-3.1-1.55-3.1-1.55S1046.28,1153.98,1044.67,1154.71z"/>
				<path class="st4" d="M971.24,1122.87l-14.57,19.79c0,0-12.87-15.43-18.66-23.18c-7.02-9.4-14.72-22.42-13.58-23.12
					c3.22-1.98,7.2-4.08,11.9-2.86C952.58,1097.71,971.24,1122.87,971.24,1122.87z"/>
				<path class="st9" d="M827.89,1424.31c0,0,10.23,31.33,14.61,32.87c1.16,0.41,7.71,2.07,8.76,4.57c0.03,0.06,0.05,0.14,0.07,0.22
					c0.34,1.59-0.99,3.05-2.61,3.05h-20.79c0,0-2.95-14.08-4.12-20.26c0,0-6.18-15.11-5.49-16.49
					C819.01,1426.9,827.89,1424.31,827.89,1424.31z"/>
				<path class="st9" d="M903.9,1464.98l3.34-10.99c0,0,7.29,3.09,10.9,2.58c3.6-0.51,10.64-2.58,10.64-2.58
					c14.38,4.8,26.16,7.13,24.02,10.99l0,0H903.9z"/>
				<path class="st8" d="M1040.23,1164.29c2.67-0.07,4.8-1.24,6.35-3.83C1046.01,1164.06,1042.58,1165.56,1040.23,1164.29z"/>
				<path class="st3" d="M905.51,1092.9c0,0-17.38,1.84-23.2,3.87c-4.85,1.7-11.43,17.57-11.43,17.57s26.35,76.16,25.31,89.77
					c-1.03,13.62-3.97,33.78-3.97,33.78s51.88,3.27,71.53-4.48c0,0-6.21-30.85-6.21-38.95c0-8.1-3.48-89.07-5.96-93.31
					c-2.48-4.24-7.48-6.65-16.96-8.72C925.15,1090.36,905.51,1092.9,905.51,1092.9z"/>
				<path class="st7" d="M908.97,1070.23l-3.46,22.66c0,0,10.41,12,17.95,9.66c6.33-1.96,4.67-10.86,4.67-10.86
					s-3.45-12.82-2.42-19.24C926.75,1066.05,908.97,1070.23,908.97,1070.23z"/>
				<path class="st11" d="M925.72,1072.46c1.03-6.42-16.75-2.23-16.75-2.23l-0.29,1.88c0.52,1.26,1.16,2.33,1.93,3.16
					c3.97,4.25,10.18,6.8,15.55,6.99C925.62,1078.8,925.29,1075.09,925.72,1072.46z"/>
				<g>
					<path class="st7" d="M906.06,1038.18c-0.5-0.18-4.03,25.81,2.66,32.96c6.69,7.15,19.73,9.49,24.4,3.86
						c5.17-6.23,4.91-34.16-5.49-41.52C917.23,1026.12,906.06,1038.18,906.06,1038.18z"/>
					<path class="st15" d="M923.67,1019.57c-8.04,1.63-13.25,6.51-15.16,8.59c-3.65,0.43-8.61,2.43-13.74,10.86
						c-6.3,10.36-1.65,21.84,5.69,27.47c7.33,5.63,7.23,12.12,7.23,12.12l1.16-3.35c0.86-2.55,1.21-5.25,0.92-7.93
						c-0.17-1.6-0.52-3.34-1.19-4.76c-1.76-3.76,3.79-6.26,5.35-9.39c1.2-2.41,1.26-7.92,3.15-11.91l2.26-3.04
						c0,0,5.2-4.02,10.3-2.89C934.72,1036.49,933.98,1017.48,923.67,1019.57z"/>
					<path class="st7" d="M913.59,1057.81c0.05,3.17-1.4,5.77-3.24,5.8c-1.84,0.03-3.38-2.51-3.43-5.68
						c-0.05-3.17,1.4-5.77,3.24-5.8C911.99,1052.09,913.53,1054.64,913.59,1057.81z"/>
				</g>
				
					<rect x="937.1" y="1112.07" transform="matrix(-1 -1.224647e-16 1.224647e-16 -1 1978.9142 2314.9719)" class="st16" width="104.71" height="90.83"/>
				
					<rect x="1002.26" y="1112.07" transform="matrix(-1 -1.224647e-16 1.224647e-16 -1 2095.3518 2314.9719)" class="st6" width="90.83" height="90.83"/>
				<path class="st7" d="M1000.48,1200.97c-5.35-1.55-66.58-17.24-68.89-18.75c-2.31-1.52-40.13-36.85-40.13-36.85l21.66-11.46
					l33.86,33.35c2.31,0.97,45.68,17.46,45.68,17.46s13.25,5.41,14.41,5.18c0.98-0.19,1.8-1.06,9.35-2.75
					c2.18-0.49,5.28,0.44,5.28,0.44s3.81,1.16,3.8,2.08c-0.01,0.92-0.96,1.62-1.73,1.66c-0.77,0.04-2.23-0.59-2.99-0.54
					c-0.77,0.05-2.37,1.75-2.67,2.54c-0.18,0.48,10.54,8.31,11.07,9.38c0.25,0.25,13.11-0.63,12.58,0.19c0,1.32-1.53,0.94-1.54,1.13
					c-0.2,3.52-18.42,6.14-19.66,5.79C1018.48,1209.23,1000.48,1200.97,1000.48,1200.97z"/>
				<path class="st4" d="M903.13,1161.64l24.81-16.25c0,0-28.74-43.59-38.55-48.09c-6.76-3.1-15.16,1.58-18.46,13.03
					C867.36,1122.78,903.13,1161.64,903.13,1161.64z"/>
			</g>
			<path class="st13" d="M1084.02,1132.6l-4.21,4.03v-23.57c0-2.44-1.98-4.42-4.43-4.42h-36.8c-2.44,0-4.43,1.98-4.43,4.42v27.39
				l-4.53-7.86l-15.54,4.53c0,0,12.47,23.73,20.07,27.61c10.17,5.18,35.42,5.06,45.65,0c6.22-3.08,16.84-22.08,16.84-22.08
				L1084.02,1132.6z"/>
			<path class="st9" d="M1070.01,1167.57c-0.72-8.15-6.21-14.49-12.87-14.49c-6.69,0-12.19,6.39-12.88,14.58
				C1052.24,1168.92,1062.09,1168.88,1070.01,1167.57z"/>
		</g>
		<g>
			<path class="st12" d="M850.84,505.71c-3.75,6.38-10.45,6.12-17.64,7.91c-4.83,1.2-7.79,9.14-7.33,15.14
				c1.17,15.21-10.75,12.63-20.34,18.93c-22.98,15.08-8.15,54.43,16.95,56.97c5.03,0.51,10.75-0.31,15.21-2.81
				c3.57-2.01,6.11-4.58,10.15-6.01c8.47-3,17.89-4.04,24.65-10.54c9.68-9.31,1.66-13.86,4.16-20.64
				c2.5-6.77,13.26-3.38,15.31-17.42c2.22-15.19-0.21-28.28-5.81-35.82c-9.27-12.48-25.55-13.33-31.49-9.54
				C852.88,503,851.66,504.32,850.84,505.71z"/>
			<path class="st7" d="M956.3,534.21c-0.89-1.89-8.84,3.7-10.6,2.63c-1.76-1.06,7.12-10.02,6.21-11.58
				c-1.67-2.88-10.33,9.21-11.18,7.93c-0.85-1.28,7.46-14.19,4.49-14.9c-2.97-0.71-7.23,14.28-8.75,13.32
				c-1.52-0.96,5.21-13.59,2.34-16.16c-1.54-1.38-8.78,23.04-11.41,24.05c-2.63,1.01-5.59-9.64-8.06-9.22
				c-2.47,0.42,8.11,19.6,7.59,21.1c-0.52,1.49-10.21,32.81-15.93,42.27c-3.44-1.65-6.8-3.3-9.99-4.92
				c-1.29,7.26-1.43,14.91-3.11,22.04c11.1,4.88,21,8.42,24.23,7.23c9.82-3.61,14.66-51.27,16.23-60.16
				c1.58-8.9,5.77-10.64,8.17-15.32C948.92,537.86,957.19,536.1,956.3,534.21z"/>
			<path class="st13" d="M874.21,574.34l-16.43,16.57c0,0,21.71,11.77,40.12,19.86c1.69-7.13,1.83-14.78,3.11-22.04
				C885.8,581.05,874.21,574.34,874.21,574.34z"/>
			<path class="st7" d="M976.7,758.39c7.21,8.5,12.43,17.36,13,18.46c0.27,0.53,0.38,3.56,0.65,4.11
				c11.22,7.38,23.1,5.33,32.85,2.29c-6.42-2.78-15.36-6-16.2-7.34c-1.33-2.14-7.45-9.91-13.76-23.86
				C988.23,757.05,983.49,756.47,976.7,758.39z"/>
			<path class="st3" d="M989.82,777.25c-0.98,4.48-0.59,13.57,0.3,13.77c1.06,0.24,38.71,5.8,43.54,0.97
				c2.9-2.91-2.57-5.14-10.45-8.74C1013.46,786.29,990.19,780.29,989.82,777.25z"/>
			<path class="st7" d="M979.9,792.36c7.21,8.5,12.43,17.36,13,18.46c0.27,0.53,0.38,3.56,0.65,4.11
				c11.22,7.38,23.1,5.33,32.85,2.29c-6.42-2.78-15.36-6-16.2-7.34c-1.33-2.14-7.45-9.91-13.76-23.86
				C991.42,791.01,986.68,790.43,979.9,792.36z"/>
			<path class="st3" d="M993.02,811.22c-0.98,4.48-0.59,13.57,0.3,13.77c1.06,0.24,38.71,5.8,43.54,0.96
				c2.9-2.91-2.57-5.14-10.45-8.74C1016.65,820.25,993.38,814.25,993.02,811.22z"/>
			<path class="st16" d="M998.31,757.99l-19.58,6.78l-105.41-87.44c0,0,25.72-0.33,71.82,4.38
				C958.93,683.12,998.31,757.99,998.31,757.99z"/>
			<path class="st6" d="M833.75,670.08c0,0-2.81,7.4-3.17,11.43c-1.15,13.04,5.59,29.61,12.85,32.14
				c7.45,2.6,53.19,15.37,80.75,11.48l59.72,79.61l19.91-8.74l-46.64-81.91c0,0-8.99-14.11-16.38-17.42
				c-7.39-3.32-67.47-19.33-67.47-19.33l-9.3-13.52L833.75,670.08z"/>
			<path class="st13" d="M882.31,587.54c-3.3-6.11-6.7-10.95-6.7-10.95c-3.42-6.11-12.27-9.2-12.27-9.2s-2.96,0.06-6.36,0.23
				c-0.21,0.57-0.43,0.97-0.64,1.13c-1.28,0.96-8.59-0.28-13.32,2.94c-15.84,13.63-11.46,79.68-10.22,100.54l38.49,1.42
				c0,0,3.68-45.84,13.48-57.38C891.6,608.24,887.21,596.6,882.31,587.54z"/>
			<path class="st7" d="M860.56,545.05c0,0-2.65,19.01-4.51,23.62c-1.85,4.62,10.19,14.5,20.2,17.49c10.02,3-3.06-10.2-2.65-15.14
				c0.41-4.94,2.24-28.31,2.24-28.31L860.56,545.05z"/>
			<path class="st11" d="M875.35,549.42c0.29-3.87,0.51-6.7,0.51-6.7l-15.29,2.33c0,0-0.39,2.23-0.81,5.39
				C865.95,554.05,871.52,552.91,875.35,549.42z"/>
			<path class="st7" d="M865.36,510.34c0,0-6.03,1.36-9.75,7.06c-3.72,5.7-6.27,22.47,5.98,30.3c12.25,7.83,21.78-3.25,21.94-14.05
				C883.69,522.85,881.39,508.43,865.36,510.34z"/>
			<path class="st7" d="M886.34,530.27c-1.04,2.61-3.12,4.22-4.63,3.61c-1.51-0.61-1.89-3.22-0.85-5.83
				c1.05-2.61,3.12-4.22,4.63-3.61C887,525.05,887.38,527.66,886.34,530.27z"/>
			<path class="st7" d="M855.42,532.41c0.89,2.81,0.08,5.57-1.82,6.17c-1.89,0.6-4.14-1.18-5.03-3.99
				c-0.89-2.81-0.07-5.57,1.82-6.17C852.27,527.81,854.53,529.6,855.42,532.41z"/>
			<g>
				<path class="st9" d="M906.17,594.76c0,0,4.12,0.11,5.29,0c6.76-0.65,3.95,9.34,3.95,9.34s-3.3-3.23-4.62-3.23
					c-1.32,0-3.16,0.36-3.16,0.36L906.17,594.76z"/>
				<path class="st4" d="M929.05,661.46c0,0,2.78,4.32,5.91,2.38c3.12-1.94,8.52-5.71,9.53-2.88c1.01,2.84,0.81,5.2-0.28,5.77
					c-1.09,0.57-9.16,4.95-13.52,5.25c-4.37,0.3-8-3.85-8-3.85L929.05,661.46z"/>
				<path class="st3" d="M935.58,671.25c-0.14-3.42-0.81-7.21-2.68-10.44c-4.78-8.27-24.96-30.55-27.96-32.28
					c-2.99-1.74-0.84-8.44-0.84-8.44l-11.97-6.46l-6.23-3.37c0,0-14.13,21.57-15.21,23.6c-1.08,2.04,0.84,8.7-0.6,12.81
					c-1.4,4.1,0.06,26.36-1.97,28.8c-1.58,1.58-3.06,1.81-3.55,2.76c-0.23,0.43-0.5,1.15,0.08,1.89c1.62,2.08,9.9,0.33,9.9,0.33
					c0.06-0.13,3.47-4.92,2.94-7.77c-0.53-2.76,1.16-19.37,2.3-19.37c1.01,0,5.78,7.38,7.68,8.79v0.01
					c0.22,0.15,0.38,0.24,0.52,0.24c1.37,0,10.21,1.95,12.16,3.89c0.52,0.52,0.73,1.92,0.74,3.68c0.03,1.17-0.04,2.49-0.14,3.84
					c-0.19,2.47-0.53,5-0.77,6.66c2.1,0.02,4.21,0.02,6.31,0.01c1.73-3.12,5.38-5.27,9.6-5.27c3.98,0,7.44,1.91,9.28,4.74
					c3.53-0.19,4.9,1.53,7.92,1.24C933.25,680.09,935.63,672.59,935.58,671.25z"/>
				<path class="st4" d="M907.37,595.73c-1.32-1.27-3.2-1.83-5.01-1.54c-0.99,0.16-2.42,0.25-4.37,0.07
					c-4.39-0.4-8.9-0.04-11.74,2.79c-2.83,2.83-3.19,12.94,0,17.69c3.19,4.75,12.22,5.94,13.01,8.1c0.8,2.16,8.62,3.19,9.74,0.56
					c0,0,0.85,0.57,2.07,0.22c2.93-0.83,3.99-3.73,2.96-6.85c-1.04-3.11-5.43-9.5-4.63-15.25
					C909.78,598.85,908.67,596.97,907.37,595.73z"/>
				<path class="st9" d="M905.53,615.18c-0.51,0.52-0.53,1.36-0.05,1.91c0.94,1.09,2.54,2.83,3.7,3.49c1.74,1,3.39-3.22,3.39-5.11
					C912.58,613.66,908.6,612.04,905.53,615.18z"/>
				<path class="st4" d="M903.74,645.48c-0.04-0.92-0.82-1.63-1.73-1.57c-0.01,0-0.02,0-0.03,0c-4.66,0.28-7.86,4.52-7.25,9.15
					c0.03,0.25,0.03,0.48-0.01,0.67c-0.18,0.82-1.55,3.56-3.03,6.35c2.79,0.7,5.58,1.4,8.38,2.09c2.05-3.55,4.08-6.85,4.08-6.85
					L903.74,645.48z"/>
				<path class="st4" d="M887.85,667.15c0,0-3.17,9.49-4.07,13.12c2.55,1.47,4.1-1.41,9.9,0.18c0.15-1.14,2.2-8.18,2.2-9.91
					c0-0.84,2.57-4.8,4.62-8.3c0.15-0.26,0.02-0.6-0.27-0.68c-2.54-0.71-5.75-2-8.28-2.71c-0.32-0.09-0.66,0.05-0.81,0.35
					C889.39,662.66,887.85,667.15,887.85,667.15z"/>
				<path class="st4" d="M881.43,679.34c0.63-1.35,2.47-2.95,5.19-2.95c2.72,0,7.06,4.06,7.06,4.06s-1.29,1.26-4.83,1.26
					C885.3,681.71,880.21,681.98,881.43,679.34z"/>
				<path class="st4" d="M897.41,678.77c0.63-1.35,2.47-2.95,5.19-2.95c1.02,0,2.27,0.57,3.43,1.28c1.85,1.14,1.08,4.01-1.1,4.03
					c-0.03,0-0.07,0-0.1,0C901.29,681.13,896.19,681.41,897.41,678.77z"/>
				<path class="st4" d="M922.91,678.77c0.76-1.35,2.97-2.95,6.25-2.95c1.23,0,2.73,0.57,4.13,1.28c2.23,1.14,1.29,4.01-1.32,4.03
					c-0.04,0-0.09,0-0.13,0C927.57,681.13,921.44,681.41,922.91,678.77z"/>
				<path class="st9" d="M895.58,597.8c-1.29-1.29-0.48-2.8,0.22-3.68c-3.65-0.08-7.18,0.56-9.54,2.92
					c-2.83,2.83-3.19,12.94,0,17.69c2.87,4.26,10.44,5.66,12.53,7.47c2.17-3.69-1.15-6.79-1.93-8.53c-0.78-1.74,3.89-6.11,4.43-9.58
					C901.82,600.62,897.53,599.76,895.58,597.8z"/>
				<path class="st4" d="M889.43,595.03c0,0-2.83,0.98-6.39-0.28c-3.56-1.26-7.09,5.09-7.09,5.09s3.29,7.13,5.93,8.86
					C884.52,610.44,889.43,595.03,889.43,595.03z"/>
			</g>
			<path class="st7" d="M934.59,655.65c0-1.58-4.84-6.14-7.17-5.4c-2.26,0.72-11.42,6.46-11.42,6.46l-40.51-9.53
				c0,0-10.23-23.31-11.22-43.34c-8.45,1.15-14.21,3.24-21.55,7.33c3.54,19.16,12.15,50.2,21.67,56.03c4,2.45,51.82-2.93,51.82-2.93
				s9.94,1.39,12.41,0.71C938.75,662.18,934.59,658.84,934.59,655.65z"/>
			<path class="st9" d="M864.52,582.44c-1.25-6.05-2.72-12.11-9.25-14.03c-4.05-1.19-8.59-0.05-11.83,2.6
				c-3.85,3.16-4.93,8.22-4.91,13.01c0.04,10.88,0.78,22.16,2.76,32.87c7.35-4.09,18.04-3.62,26.49-4.77
				C868.56,602.45,866.15,590.32,864.52,582.44z"/>
		</g>
		<path class="st13" d="M536.13,548.4c-4.29,22.76-17.97,70.63-40.29,69.88c-1.09-31.23-2.62-58.06-4.76-66.54
			c-0.49-1.76-1.08-3.46-1.77-5.1c13.9,1.21,22.25-19.98,25.45-34.91c-2.85,9.47-9.31,24.65-17.77,29.72
			c-4.8,2.89-8.32,1.43-9.67,1.03c-8.07-15.02-23.31-25.08-30.67-34.02c-5.82-7.16-2.09-35.78-0.65-44.86
			c-2.05,10.53-4.23,25.96-3.31,36.72c1.14,12.13,7.4,12.9,21.74,29.2c11.49,12.85,15.5,19.79,15.9,69.05
			c-0.88,0.18-1.99,0.36-3.18,0.41c-11.76,0.22-22.57-11.21-28.56-21.2c4.73,9.09,13.12,19.37,22.96,22.5
			c1.8,0.56,3.68,0.89,5.59,0.97c1.04,0.02,2.18-0.06,3.2-0.18c0.26,4.32,1.58,88.95,0.41,143.63c3.47,0.04,2.84-1.58,6.24-1.31
			c-0.13-14.81,0.62-70.19-0.95-118.79C522.08,623.54,533.01,575.39,536.13,548.4z"/>
		<g>
			<path class="st16" d="M440.69,473.68c5.31,4.25,13.21,3.21,13.21,3.21l-19.22-15.41C434.68,461.48,435.38,469.43,440.69,473.68z"
				/>
			<path class="st6" d="M434.68,461.48l19.22,15.41c0,0-0.7-7.95-6-12.2C442.59,460.44,434.68,461.48,434.68,461.48z"/>
		</g>
		<g>
			<path class="st16" d="M529.95,614.67c6.8-0.26,12.09-6.22,12.09-6.22l-24.61,0.93C517.43,609.37,523.15,614.93,529.95,614.67z"/>
			<path class="st6" d="M517.43,609.37l24.61-0.93c0,0-5.73-5.55-12.52-5.29C522.72,603.41,517.43,609.37,517.43,609.37z"/>
		</g>
		<g>
			<path class="st16" d="M537.08,589.91c4.65-3,5.87-9.37,5.87-9.37l-16.82,10.86C526.12,591.41,532.43,592.91,537.08,589.91z"/>
			<path class="st6" d="M526.12,591.41l16.82-10.86c0,0-6.31-1.51-10.95,1.5C527.35,585.04,526.12,591.41,526.12,591.41z"/>
		</g>
		<g>
			<path class="st16" d="M513.03,588.98c1.92,5.19,7.86,7.77,7.86,7.77l-6.94-18.79C513.96,577.97,511.12,583.79,513.03,588.98z"/>
			<path class="st6" d="M513.96,577.97l6.94,18.79c0,0,2.84-5.83,0.93-11.02C519.91,580.55,513.96,577.97,513.96,577.97z"/>
		</g>
		<g>
			<path class="st16" d="M458.49,487.97c-4.16,2.89-5.07,8.76-5.07,8.76l15.05-10.48C468.47,486.25,462.65,485.07,458.49,487.97z"/>
			<path class="st6" d="M468.47,486.25l-15.05,10.48c0,0,5.82,1.17,9.98-1.72C467.55,492.12,468.47,486.25,468.47,486.25z"/>
		</g>
		<g>
			<path class="st16" d="M515.96,529.95c-5.05-0.39-9.47,3.57-9.47,3.57l18.28,1.42C524.77,534.94,521.01,530.35,515.96,529.95z"/>
			<path class="st6" d="M524.77,534.94l-18.28-1.42c0,0,3.76,4.6,8.81,4.99C520.35,538.9,524.77,534.94,524.77,534.94z"/>
		</g>
		<g>
			<path class="st16" d="M461.96,587.51c-5.05-0.39-9.48,3.57-9.48,3.57l18.28,1.42C470.77,592.5,467.01,587.9,461.96,587.51z"/>
			<path class="st6" d="M470.77,592.5l-18.28-1.42c0,0,3.76,4.6,8.81,4.99C466.34,596.45,470.77,592.5,470.77,592.5z"/>
		</g>
		<g>
			<path class="st16" d="M471.45,582.39c-1.84-4.72-7.33-6.98-7.33-6.98l6.67,17.08C470.78,592.5,473.29,587.11,471.45,582.39z"/>
			<path class="st6" d="M470.78,592.5l-6.67-17.08c0,0-2.5,5.39-0.66,10.1C465.29,590.23,470.78,592.5,470.78,592.5z"/>
		</g>
		<g>
			<path class="st16" d="M507.54,523.48c-1.13-3.03-4.61-4.53-4.61-4.53l4.09,10.98C507.02,529.93,508.67,526.51,507.54,523.48z"/>
			<path class="st6" d="M507.02,529.93l-4.09-10.98c0,0-1.65,3.41-0.52,6.45C503.54,528.43,507.02,529.93,507.02,529.93z"/>
		</g>
		<g>
			<path class="st16" d="M446.86,499.01c-4.73-1.8-10.1,0.75-10.1,0.75l17.14,6.52C453.9,506.28,451.59,500.81,446.86,499.01z"/>
			<path class="st6" d="M453.9,506.28l-17.14-6.52c0,0,2.31,5.47,7.04,7.27C448.54,508.83,453.9,506.28,453.9,506.28z"/>
		</g>
		<path class="st16" d="M507.17,743.56h2.67V638.69c0-0.74-0.6-1.34-1.34-1.34l0,0c-0.74,0-1.34,0.6-1.34,1.34V743.56z"/>
		<path class="st4" d="M476.04,747.32c0,0,12.3-14.79,22.2-10.58c9.9,4.21,11.52-3.39,16.7-0.89c5.18,2.51,11.66,8.83,11.66,8.83
			L476.04,747.32z"/>
		<g>
			<path class="st3" d="M499.79,668.32c-2.82,0-6.08-0.65-9.62-2.51c-0.32-0.17-0.44-0.56-0.27-0.88c0.17-0.32,0.56-0.44,0.88-0.27
				c10.65,5.62,18.33-0.36,18.65-0.62c0.28-0.22,0.69-0.18,0.91,0.1c0.22,0.28,0.18,0.69-0.1,0.91
				C510.19,665.1,506.09,668.32,499.79,668.32z"/>
		</g>
		<g>
			<path class="st3" d="M490.91,665.96l-1.15-0.68c-0.87-0.51-8.49-5.11-8.74-8.64c-0.06-0.84,0.28-1.58,0.98-2.15
				c1.26-1.02,2.49-1.3,3.66-0.84c3.65,1.45,4.94,10.01,5.07,10.98L490.91,665.96z M484.55,654.74c-0.54,0-1.11,0.25-1.75,0.76
				c-0.37,0.3-0.53,0.63-0.5,1.05c0.15,2.06,4.3,5.18,6.9,6.86c-0.57-2.93-1.92-7.71-4.03-8.55
				C484.97,654.78,484.76,654.74,484.55,654.74z"/>
		</g>
		<g>
			<path class="st3" d="M482.76,673.8c-0.46,0-1.1-0.17-1.58-0.98c-0.4-0.66-0.47-1.39-0.2-2.11c1.04-2.82,7.12-4.93,7.81-5.17
				l1.59-0.53l-0.81,1.46c-0.68,1.22-4.18,7.29-6.77,7.34C482.78,673.8,482.77,673.8,482.76,673.8z M487.49,667.42
				c-2.05,0.87-4.77,2.3-5.3,3.73c-0.13,0.35-0.1,0.67,0.1,1c0.22,0.36,0.39,0.35,0.48,0.35
				C483.88,672.49,485.94,669.88,487.49,667.42z"/>
		</g>
		<path class="st3" d="M491.48,665c0,0.61-0.5,1.11-1.11,1.11c-0.61,0-1.11-0.5-1.11-1.11s0.5-1.11,1.11-1.11
			C490.99,663.89,491.48,664.39,491.48,665z"/>
		<polygon class="st6" points="54.04,1110.69 57.95,1114.03 62.7,1111.83 66.82,1115.88 71.17,1111.98 76.03,1116.34 80.47,1113.25 
			85.83,1116.68 84.53,1118.72 80.52,1116.15 75.84,1119.42 71.17,1115.22 66.75,1119.19 62.2,1114.72 57.56,1116.86 53.94,1113.78 
			51.19,1115.82 49.75,1113.88 		"/>
		<polygon class="st6" points="615.87,494.16 600.03,490.5 595.84,501.79 580.08,498.72 574.36,509.01 562.24,508.23 562.18,513.1 
			578.4,514.15 583.82,504.39 600.21,507.58 604.33,496.49 618.69,499.8 		"/>
		<path class="st13" d="M1065.89,750.17l5.72-9.66l-4.71-10.19c-0.54-1.16,0.49-2.43,1.74-2.15l10.95,2.45l8.23-7.63
			c0.94-0.87,2.47-0.29,2.59,0.99l1.05,11.18l9.8,5.47c1.12,0.62,1.03,2.26-0.14,2.76l-10.3,4.45l-2.17,11.01
			c-0.25,1.25-1.82,1.68-2.67,0.72l-7.42-8.42l-11.14,1.34C1066.13,752.64,1065.24,751.27,1065.89,750.17z"/>
		<g>
			<path class="st13" d="M123.76,1018.49c0,0,1.77-5,7.71-6.79c5.29-1.59,10.2,1.52,11.68,6.41c1.71,5.67-1.25,13.87-12.4,23.59
				c-14.66-1.95-21.65-7.16-23.35-12.83c-1.47-4.9,0.91-10.2,6.2-11.79C119.52,1015.29,123.76,1018.49,123.76,1018.49z"/>
			<g>
				<path class="st13" d="M80.68,1033.88c5.39-0.71,9.69-1.56,13.87-2.59c1.38-0.34,3.87-0.52,4.54-1.94
					c0.35-0.74,0.24-1.51-0.47-1.99c-1.3-0.9-3.27,0.07-4.66,0.41c-4.24,1.04-9.08,2.02-14.04,2.72c-0.93,0.13-1.51,1.21-1.32,2.07
					C78.83,1033.55,79.75,1034,80.68,1033.88L80.68,1033.88z"/>
			</g>
			<g>
				<path class="st13" d="M154.12,1027.39c2.04-0.46,4.06-0.97,6.09-1.46c1.94-0.47,4.32-0.7,5.99-1.81
					c1.24-0.82,0.92-2.65-0.63-2.82c-2.01-0.21-4.19,0.68-6.13,1.16c-2.03,0.5-4.06,1-6.08,1.53
					C151.21,1024.57,151.93,1027.89,154.12,1027.39L154.12,1027.39z"/>
			</g>
			<g>
				<path class="st13" d="M105.87,1055.88c1.51-4.89,4.29-6.96,6.26-9.18c1.05-1.18-0.1-2.89-1.6-2.26
					c-4.09,1.7-6.77,6.39-7.98,10.44C101.93,1057.01,105.21,1058.02,105.87,1055.88L105.87,1055.88z"/>
			</g>
			<g>
				<path class="st13" d="M131.87,1060.92c-0.59-2.08-0.77-4.2-0.47-6.34c0.18-1.31,1.79-5.24-0.74-5.28
					c-2.39-0.05-2.7,3.94-2.86,5.63c-0.21,2.26,0.03,4.58,0.67,6.76C129.09,1063.82,132.48,1063.08,131.87,1060.92L131.87,1060.92z"
					/>
			</g>
			<g>
				<path class="st13" d="M145.98,1043.97c1.33,0.55,2.65,1.09,3.98,1.64c1.32,0.55,2.69,1.47,4.1,0.81
					c0.79-0.37,0.92-1.29,0.64-2.02c-0.51-1.33-2.5-1.71-3.71-2.19c-1.33-0.54-2.66-1.08-3.99-1.61c-0.88-0.36-1.94,0.32-2.2,1.18
					C144.5,1042.76,145.09,1043.61,145.98,1043.97L145.98,1043.97z"/>
			</g>
			<g>
				<path class="st13" d="M106.79,1009.42c-6.82-9.33-6.75-9.4-7.82-10.04c-1.1-0.66-2.59,0.33-2.28,1.62
					c0.3,1.28,0.28,1.06,7.49,10.85c0.57,0.78,1.88,0.7,2.53,0.09C107.47,1011.23,107.36,1010.2,106.79,1009.42L106.79,1009.42z"/>
			</g>
			<g>
				<path class="st13" d="M125.28,1004.83c0.26-1.89,0.31-3.78,0.17-5.68c-0.14-1.76-0.11-4.49-1.97-5.29
					c-0.4-0.17-1.03-0.01-1.32,0.31c-1.2,1.33-0.35,3.57-0.23,5.19c0.13,1.78,0.07,3.56-0.1,5.34c-0.09,0.93,0.77,1.76,1.66,1.79
					C124.49,1006.53,125.15,1005.76,125.28,1004.83L125.28,1004.83z"/>
			</g>
			<g>
				<path class="st13" d="M151.82,1000.21c0.11-0.86-0.7-1.46-1.45-1.56c-1.53-0.21-3.04,1.59-4.05,2.56
					c-1.17,1.14-2.22,2.38-3.2,3.69c-0.56,0.76-0.19,1.94,0.57,2.4c0.88,0.55,1.81,0.17,2.4-0.57
					C149.95,1001.92,151.55,1002.34,151.82,1000.21z"/>
			</g>
		</g>
		<path class="st13" d="M1201.59,879.69c-1.69,13.33,12.19,23.9,24.53,23.07c13.64-0.92,25.22-12.11,27.21-25.52
			c2.16-14.51-6.56-26.12-20.05-27.18c-13.13-1.04-21.53,10.65-17.74,22.45c2.72,8.46,10.44,11.61,14.33,9.28
			c3.03-1.82,2.85-6.4-0.82-7.21c-1.47-0.32-2.99,0.5-3.77,1.62c-3.21-1.27-6.27-7.12-4.19-13.44c2.65-8.07,12.85-8.53,19.18-4.76
			c8.06,4.79,9.33,15.1,6.37,23.31c-3.11,8.63-11.58,15.42-20.8,16.08c-10.45,0.74-19.64-7.27-20.48-17.68
			C1205.16,877.24,1201.89,877.3,1201.59,879.69z"/>
		<path class="st6" d="M131.42,1166.79c-0.87,6.83,6.24,12.24,12.56,11.81c6.99-0.47,12.92-6.2,13.94-13.07
			c1.11-7.43-3.36-13.38-10.27-13.92c-6.73-0.53-11.03,5.46-9.09,11.5c1.39,4.33,5.35,5.94,7.34,4.75c1.55-0.93,1.46-3.28-0.42-3.7
			c-0.75-0.17-1.53,0.25-1.93,0.83c-1.65-0.65-3.21-3.65-2.15-6.88c1.36-4.13,6.58-4.37,9.82-2.44c4.13,2.45,4.78,7.73,3.26,11.94
			c-1.59,4.42-5.93,7.9-10.65,8.23c-5.35,0.38-10.06-3.72-10.49-9.05C133.25,1165.53,131.58,1165.56,131.42,1166.79z"/>
		<path class="st3" d="M164.09,871.15l-0.1-12.78l-10.58-7.16c-1.21-0.82-0.95-2.66,0.43-3.12l12.12-4.05l3.54-12.28
			c0.4-1.4,2.24-1.73,3.1-0.56l7.59,10.28l12.77-0.43c1.45-0.05,2.33,1.59,1.49,2.78l-7.43,10.4l4.35,12.01
			c0.5,1.37-0.79,2.71-2.18,2.27l-12.19-3.85l-10.08,7.85C165.78,873.42,164.11,872.61,164.09,871.15z"/>
		<g>
			<path class="st2" d="M1090.25,1029c-0.41-5.88,4.03-10.98,9.91-11.39c5.88-0.41,10.98,4.03,11.39,9.91
				c0.41,5.88-4.03,10.98-9.91,11.39C1095.76,1039.32,1090.66,1034.88,1090.25,1029z"/>
			<g>
				<path class="st2" d="M1108.36,1059.15c-0.64-3.1-1.02-6.41-2.08-9.4c-0.91-2.57-4.91-1.78-4.71,0.97
					c0.25,3.38,1.3,6.8,2.01,10.11c0.29,1.34,2.06,1.96,3.23,1.55C1108.24,1061.88,1108.64,1060.5,1108.36,1059.15L1108.36,1059.15z
					"/>
			</g>
			<g>
				<path class="st2" d="M1126.66,1045.92c-3.54-2.09-6.62-4.67-9.89-7.14c-2.55-1.93-5.3,1.39-3.2,3.68
					c3.01,3.29,6.97,5.86,10.79,8.11c1.21,0.71,2.89,0.02,3.48-1.17C1128.49,1048.07,1127.87,1046.64,1126.66,1045.92
					L1126.66,1045.92z"/>
			</g>
			<g>
				<path class="st2" d="M1119.96,1026.81c-0.8,0.64-0.96,1.57-0.47,2.46c1.2,2.17,4.23,2.06,6.39,1.99
					c2.25-0.08,4.5-0.53,6.63-1.26c3.15-1.07,1.44-5.96-1.72-4.88C1124.62,1027.23,1122.28,1024.94,1119.96,1026.81z"/>
			</g>
			<g>
				<path class="st2" d="M1116.56,1006.05c-3.11,4.55-5.65,6.08-5.25,8.58c0.23,1.46,1.39,2.16,2.8,1.84
					c1.67-0.38,2.58-2.15,3.58-3.39c0.96-1.19,1.9-2.39,2.76-3.65c0.78-1.15,0.89-2.64-0.25-3.63
					C1119.23,1004.97,1117.34,1004.89,1116.56,1006.05L1116.56,1006.05z"/>
			</g>
			<g>
				<path class="st2" d="M1104.45,1005.26c-0.99-2.76-1.21-3.76-2.5-5.04c-1.12-1.11-3.48-0.4-3.64,1.24
					c-0.18,1.91,0.22,2.62,1.26,5.52c0.47,1.31,1.97,2.05,3.3,1.58C1104.18,1008.1,1104.92,1006.58,1104.45,1005.26L1104.45,1005.26
					z"/>
			</g>
			<g>
				<path class="st2" d="M1091.37,1011.93c-4.48-3.4-5.39-4.36-7.15-4.18c-1.03,0.11-2.19,1.1-1.96,2.26
					c0.42,2.15,1.67,2.74,5.79,5.74c1.11,0.81,2.62,0.85,3.57-0.25C1092.47,1014.52,1092.47,1012.76,1091.37,1011.93
					L1091.37,1011.93z"/>
			</g>
			<g>
				<path class="st2" d="M1073.38,1027.53c-1.76,0.94-1.05,3.99,0.86,4.24c1.83,0.24,2.54-0.05,11.43-1.68
					c1.37-0.25,2.5-1.25,2.4-2.76c-0.09-1.28-1.38-2.65-2.76-2.4C1076.07,1026.6,1075.15,1026.59,1073.38,1027.53z"/>
			</g>
			<g>
				<path class="st2" d="M1087.31,1042.08c-4.87,4.72-5.59,3.89-7.51,6.77c-0.88,1.32,0.57,3.42,2.1,3.14
					c1.97-0.36,2.5-0.69,5.06-2.72c1.49-1.18,2.91-2.45,4.28-3.76c1.01-0.98,0.74-2.81-0.26-3.68
					C1089.85,1040.83,1088.33,1041.1,1087.31,1042.08L1087.31,1042.08z"/>
			</g>
		</g>
		<path class="st3" d="M252.82,1457.09h10.44V902.56c0-2.88-2.34-5.22-5.22-5.22l0,0c-2.88,0-5.22,2.34-5.22,5.22V1457.09z"/>
		<path class="st3" d="M323.36,1457.09h10.44V893.17c0-2.88-2.34-5.22-5.22-5.22l0,0c-2.88,0-5.22,2.34-5.22,5.22V1457.09z"/>
		<rect x="260.25" y="957.45" class="st3" width="71.88" height="6.26"/>
		<rect x="260.25" y="1041.3" class="st3" width="71.88" height="6.26"/>
		<rect x="260.25" y="1125.16" class="st3" width="71.88" height="6.26"/>
		<rect x="260.25" y="1209.01" class="st3" width="71.88" height="6.26"/>
		<g>
			<path class="st17" d="M280.3,1262.23h-45.34c-3.74,0-6.78,3.03-6.78,6.78v25.45h7.58v-24.13h44.54V1262.23z"/>
			<path class="st7" d="M288.96,1245.05l-14.05-14.83c0,0-15.04,8.27-32.58,16.18c-4.82-8.39-12.69-35.99-13.11-37.31
				c-0.42-1.32,9.22-17.9,7.06-18.32c-2.16-0.42-4.96,8.85-7.24,7.91c-2.28-0.94-8.14-22.45-9.51-21.27
				c-2.57,2.2,3.08,13.38,1.73,14.19c-1.35,0.81-4.79-12.39-7.4-11.83c-2.61,0.56,4.41,12.02,3.64,13.12
				c-0.77,1.1-8.11-9.65-9.63-7.16c-0.82,1.35,6.77,9.36,5.21,10.26c-1.56,0.9-8.41-4.15-9.23-2.52c-0.82,1.64,6.39,3.34,8.39,7.47
				c2,4.14,5.64,5.75,6.85,13.57c1.21,7.81,4.51,49.61,13.03,52.97C239.56,1270.43,288.96,1245.05,288.96,1245.05z"/>
			<g>
				<path class="st7" d="M418.6,1437.76c1.11-7.88,1.02-22.44,0.46-37.8c6.88-0.35,12.7-0.79,19.57-1.24
					c-2.86,19.61-4.79,39.81-4.79,39.81l0.47,3.88l0.25,11.49l-38.92,0.29c0,0,8.2-3.64,19.68-10.82
					C416.17,1442.83,418.12,1441.14,418.6,1437.76z"/>
				<path class="st9" d="M435.61,1456.36l-41.04,0.49c-1.49-0.13-1.85-1.33-1.33-2.08c1.06-1.53,5.75-2.64,11.02-5.08
					c9.24,0.96,28.58-5.35,30.03-7.47C435.13,1446.48,436.44,1456.18,435.61,1456.36z"/>
			</g>
			<g>
				<path class="st7" d="M488.34,1429.63c-3.21-7.29-10.96-19.61-19.53-32.36c5.66-3.92,11.27-7.91,16.87-11.92
					c7.91,18.18,16.02,36.91,16.02,36.91l2.44,3.05l6.27,9.63l-32.92,20.76c0,0,5.05-7.42,11.02-19.57
					C488.94,1435.23,489.71,1432.76,488.34,1429.63z"/>
				<path class="st9" d="M512.13,1437.34l-34.15,21.18c-1.33,0.67-2.27-0.16-2.23-1.06c0.1-1.85,3.49-5.28,6.69-10.12
					c8.36-4.05,21.39-19.71,21.51-22.28C506.9,1428.23,512.73,1436.76,512.13,1437.34z"/>
			</g>
			<path class="st12" d="M472.33,1109.05c3.04-14.84-6.5-29.55-19.89-35.08c0.09-8.45-2.65-19.14-8.41-24.93
				c-11.38-11.4-33.09-15.4-41.45-0.86c-11.05,6.25-19.74,19.79-16.45,32.12c-10.71,11.09-6.64,31.16,8.97,40.64
				c-0.25,12.45,6.33,24.81,17.21,30.13c2.61,1.28,6.7,3.06,7.22,3.61c-0.68-0.64,8.06,23.7,35.22,12.56
				C482.46,1155.87,490.39,1123.87,472.33,1109.05z"/>
			<path class="st16" d="M417.88,1426.62c3.37-18.7-8.34-65.05-15.48-85.43c-7.43-21.2-12.15-110.91-12.15-110.91l8.42-9.85
				l34.37-2.06c0,0-14.62,44.93-14.62,60.37c0,15.44,7.11,55.29,15.47,76.03c7.71,19.13,4.51,59.24,2.17,72.43
				C429.85,1428.21,423.95,1427.84,417.88,1426.62z"/>
			<path class="st6" d="M441.73,1222.55c1.58,1.57,10.81,12.51,10.81,20.16c0,7.65-17.41,76.46-13.23,80.63
				c4.18,4.17,19.63,14.61,29.5,29.16c8.31,12.26,27.36,47.7,31,56.12c-7.18,5-13.41,7.27-20.61,9.68
				c-1.15-6.27-57.44-68.32-63.87-81.3c-6.43-12.97-9.91-72.29-13.16-80.17c-3.25-7.88-11.92-27.89-11.92-27.89L441.73,1222.55z"/>
			<path class="st7" d="M391.59,1171.83c0,0-21.22,24.22-44.7,33.33c-3.67,1.43-6.83,4.21-6.83,4.21c0,2.47,4.4,0.68,4.4,0.68
				s-1.48,2.4-0.7,5.34c0.77,2.93,5.89,0.98,8.68,0.98c1.28,0,7.82-7.33,16.66-11.63c10.46-5.1,22.81-10.08,24.32-11.59
				C396.21,1190.37,392.41,1170.95,391.59,1171.83z"/>
			<path class="st9" d="M434.74,1103.69c0,0-21.35-2.16-32.5,4.94c-11.14,7.11-18.26,32.44-18.26,43.25
				c0,10.81,8.03,67.66,4.94,78.47c0,0,35.29-1.54,47.36-1.54c12.07,0,14.55-4.63,14.55-4.63s-25.07-24.72-25.07-35.53
				C425.77,1177.83,434.74,1103.69,434.74,1103.69z"/>
			<g>
				<path class="st9" d="M143.15,1394.94v37.04h4.01v-33.67h26.55v11.56c-10.26,1.1-18.28,10.58-18.28,22.11
					c0,12.27,9.08,22.22,20.29,22.22c11.2,0,20.29-9.95,20.29-22.22c0-11.53-8.02-21.01-18.28-22.11v-11.56h5.51v-4.39h-5.51v-13.33
					h5.51v-4.39h-5.51v-14.84h72.63v-6.58h-40.13v-37.71c0-10.07,9.26-21.34,21.65-21.34h34.51v-6.58h-34.51
					c-14.74,0-27.66,13.05-27.66,27.92v37.71h-26.49v-21.15h-4.01v42.57h-13.44C150.83,1376.19,143.15,1384.6,143.15,1394.94z
					 M173.71,1393.92h-26.51c0.48-7.44,6.16-13.33,13.07-13.33h13.44V1393.92z"/>
				<path class="st18" d="M158.88,1400.75c0,0,0.81,14.28,0.81,14.31c0.3,1.81,1.47,6.29,1.47,7.94c0,6.19-27.55-5.26-21.38-8
					c0.56-0.25,3.74-3.68,4.54-5.64c1.42-3.49,2.05-10.33,2.05-10.33L158.88,1400.75z"/>
				<path class="st19" d="M139.86,1414.95c0,0,6.47,1.89,9.78,2.37c3.31,0.47,7.68-3.51,10.02-2.44c2.58,1.18,2.73,12.07,2.73,12.07
					s-34.63,1.15-44.69-0.32C113.68,1426.04,126.63,1419.36,139.86,1414.95z"/>
				<g>
					<path class="st9" d="M296.81,1370.25h7.61v-145c0-4.89,4.79-8.87,10.68-8.87h68.46c1.83,0,3.31-1.42,3.31-3.16l0,0
						c0-1.75-1.48-3.16-3.31-3.16H315.1c-10.08,0-18.29,6.82-18.29,15.2V1370.25z"/>
				</g>
				<g>
					<path class="st9" d="M261.13,1339.83c25.36,0,45.93,20.75,45.93,46.34s-20.56,46.34-45.93,46.34
						c-25.37,0-45.93-20.75-45.93-46.34S235.76,1339.83,261.13,1339.83z"/>
					<path class="st9" d="M205.2,1386.17c0,31.16,25.04,56.43,55.93,56.43c30.89,0,55.93-25.26,55.93-56.43
						c0-31.16-25.04-56.43-55.93-56.43C230.24,1329.74,205.2,1355.01,205.2,1386.17z M210.5,1386.17
						c0-28.21,22.67-51.08,50.63-51.08c27.96,0,50.63,22.87,50.63,51.08s-22.67,51.08-50.63,51.08
						C233.17,1437.25,210.5,1414.38,210.5,1386.17z"/>
				</g>
				
					<rect x="297.85" y="1234.82" transform="matrix(-1 -1.224647e-16 1.224647e-16 -1 618.1605 2556.6978)" class="st13" width="22.47" height="87.06"/>
				<g>
					<path class="st13" d="M224.13,1376.19h-19.01c-10.24,0-18.58,8.41-18.58,18.75v37.04h4.35v-37.04
						c0-7.92,6.38-14.36,14.23-14.36h19.01V1376.19z"/>
				</g>
				
					<rect x="157.18" y="1327.48" transform="matrix(-1 -1.224647e-16 1.224647e-16 -1 373.4486 2665.0967)" class="st9" width="59.09" height="10.14"/>
				<g>
					<rect x="188.72" y="1393.92" class="st13" width="35.09" height="4.39"/>
				</g>
				<g>
					<rect x="221.89" y="1354.77" class="st13" width="81.02" height="6.58"/>
				</g>
				
					<rect x="214.82" y="1327.33" transform="matrix(-1 -1.224647e-16 1.224647e-16 -1 535.135 2664.9421)" class="st9" width="105.5" height="10.29"/>
				<g>
					<path class="st13" d="M317.05,1378.01h6.53v-145c0-4.89,4.11-8.87,9.15-8.87h61.54v-6.32h-61.54
						c-8.65,0-15.68,6.82-15.68,15.19V1378.01z"/>
				</g>
				<path class="st9" d="M197.4,1431.98c0,12.27,10.96,22.22,24.49,22.22c13.52,0,24.49-9.95,24.49-22.22
					c0-12.27-10.96-22.22-24.49-22.22C208.37,1409.75,197.4,1419.7,197.4,1431.98z"/>
				<path class="st13" d="M206.98,1431.98c0,7.47,6.68,13.53,14.91,13.53c8.24,0,14.91-6.06,14.91-13.53
					c0-7.47-6.67-13.53-14.91-13.53C213.65,1418.44,206.98,1424.5,206.98,1431.98z"/>
				<path class="st4" d="M162.17,1289.14c7.08-7.08,105.77-3.67,105.77-3.67s-83.61,20.4-88.49,23.06
					c-4.88,2.66-23.05,92.45-23.07,93.63c-5.04-1.2-8.1-0.29-13.23-1.34C143.97,1385.21,150.76,1300.55,162.17,1289.14z"/>
				<path class="st20" d="M171.79,1401.19c0,0,0.81,14.28,0.81,14.31c0.3,1.81,1.47,6.29,1.47,7.94c0,6.19-27.55-5.26-21.38-8
					c0.56-0.25,4.36-3.53,4.54-5.64c0.28-3.25,0.13-8.41,0.13-8.41L171.79,1401.19z"/>
				<path class="st19" d="M152.76,1415.38c0,0,6.47,1.89,9.78,2.37c3.31,0.47,7.68-3.51,10.02-2.44c2.58,1.18,2.73,12.07,2.73,12.07
					s-34.63,1.15-44.69-0.32C126.59,1426.48,139.54,1419.79,152.76,1415.38z"/>
				<path class="st3" d="M283.33,1305.74c0,0-0.85,22.4-8.31,22.67c-7.46,0.27-55.31,1.34-82.26-1.08l-18.13,80.14l-21.29-2.05
					c0,0,6.41-53.53,8.69-73.88c2.24-20.03,8.71-36.83,20.03-37.24c11.32-0.41,85.76-11.92,85.76-11.92L283.33,1305.74z"/>
				<path class="st6" d="M303.4,1201.16c0,0,12.08,3.06,10.44,26.66c-1.64,23.6-14.69,94.99-38.82,100.59
					c-24.13,5.6-39.85-45.21-39.85-45.21s15.23-5,21.57-28.62c4.39-16.36,16.17-53.29,19.12-55.07
					C283.17,1195.09,303.4,1201.16,303.4,1201.16z"/>
				<path class="st13" d="M252.82,1359.84h6.53v-42.78c0-10.07,10.05-21.34,23.51-21.34h37.46v-6.58h-37.46
					c-16,0-30.03,13.05-30.03,27.92V1359.84z"/>
				<ellipse class="st13" cx="320.31" cy="1392.28" rx="52.75" ry="53.22"/>
				<path class="st13" d="M256.08,1392.28c0,35.79,28.76,64.81,64.23,64.81s64.23-29.01,64.23-64.81
					c0-35.79-28.76-64.81-64.23-64.81S256.08,1356.49,256.08,1392.28z M262.17,1392.28c0-32.4,26.03-58.67,58.14-58.67
					c32.11,0,58.14,26.27,58.14,58.67c0,32.4-26.03,58.66-58.14,58.66C288.2,1450.95,262.17,1424.68,262.17,1392.28z"/>
				<path class="st9" d="M276.81,1392.28c0,24.24,19.48,43.89,43.5,43.89c24.03,0,43.5-19.65,43.5-43.89
					c0-24.24-19.48-43.89-43.5-43.89C296.29,1348.39,276.81,1368.04,276.81,1392.28z"/>
				<path class="st13" d="M310.53,1392.28c0,5.46,4.38,9.88,9.79,9.88c5.41,0,9.79-4.42,9.79-9.88c0-5.45-4.38-9.88-9.79-9.88
					C314.91,1382.41,310.53,1386.83,310.53,1392.28z"/>
				
					<rect x="126.29" y="1427.22" transform="matrix(-1 -1.224647e-16 1.224647e-16 -1 318.9953 2865.9424)" class="st9" width="66.42" height="11.5"/>
				
					<rect x="155" y="1427.22" transform="matrix(-1 -1.224647e-16 1.224647e-16 -1 347.7081 2865.9424)" class="st13" width="37.7" height="11.5"/>
				<g>
					<rect x="219.71" y="1337.49" class="st13" width="4.35" height="101.23"/>
				</g>
				<path class="st9" d="M219.31,1433.27c0,1.5,1.2,2.71,2.68,2.71c1.48,0,2.69-1.21,2.69-2.71c0-1.5-1.2-2.71-2.69-2.71
					C220.51,1430.56,219.31,1431.77,219.31,1433.27z"/>
				<g>
					<path class="st15" d="M296.11,1137.98c0,0,8.46-5.72,12.04,4.3c-0.03-0.08,2.99-0.05,3.4,0.09c1.74,0.59,3.42,2.4,4.97,3.39
						c5.53,3.54,8.07,10.41,8.38,16.72c0.36,7.66-2.8,13.26-7.84,18.79c-1.48,1.63-3.07,3.22-5.01,4.26
						c-2.35,1.26-4.2,0.26-6.4,0.79c-1.86,0.45-2.51,2.41-4.7,1.7c-3.07-0.99-6.29-4.83-10.09-4.26c-3.8,0.57-12.57-2.85-12.6-2.86
						c-11.27-4.39-3.66-26.21-1.5-33.95C278.78,1139.69,289.13,1135.35,296.11,1137.98z"/>
					<path class="st7" d="M285.92,1187.55l-2.93,7.99l-1.58,4.47c0,0-0.11,7.99,1.75,10.06c3.21,3.56,16.4-9.64,16.4-9.64
						l4.18-25.13L285.92,1187.55z"/>
					<path class="st11" d="M302.39,1183.44c-5.02,7.78-13.66,11.33-19.42,12.18l2.96-8.06l17.82-12.26L302.39,1183.44z"/>
					<path class="st7" d="M300.32,1149.48c-6.72-4.11-15.53-0.99-18.29,6.26c-1.2,3.15-2.54,7.15-3.61,11.61
						c-2.57,10.73,0.69,22.44,5.58,23.52c4.89,1.08,19.94-2.91,23.81-18.09C310.19,1163.41,307.37,1153.79,300.32,1149.48z"/>
					<path class="st7" d="M303.93,1173.19c-0.52,2.38,0.62,4.65,2.57,5.08c1.94,0.43,3.94-1.15,4.47-3.52
						c0.52-2.38-0.62-4.65-2.57-5.08C306.45,1169.24,304.45,1170.82,303.93,1173.19z"/>
					<path class="st15" d="M288.83,1177.64c0,0,6.45,2.1,6.97,4.47c0.53,2.37-0.26,5.79-3.42,8.42c-3.16,2.63-9.91,1.01-11.75-0.44
						c-1.84-1.45-3.24-7.58-1.4-11C281.07,1175.67,288.83,1177.64,288.83,1177.64z"/>
					<path class="st7" d="M290.93,1182.6c0,0-0.04,2.64-0.92,3.11c-0.86,0.46-1.94,0.85-2.94,0.94c-1.62,0.15-3.09-0.54-3.94-1.79
						c-0.08-0.12-0.16-0.25-0.23-0.38c-0.66-1.32-0.79-3.64-0.79-3.64s2.72-0.66,4.3-0.39
						C287.99,1180.71,290.93,1182.6,290.93,1182.6z"/>
				</g>
			</g>
			<path class="st7" d="M360.62,1213.36c2.55-2.55,14.39-6.49,23.37-12.98c3.97-2.87,11.6-6.64,19.02-10.75
				c5.42,3.01,10.33,6.78,13.99,11.29c-13.44,6.18-28.02,12.39-30.23,14.6c-4.18,4.17-11.45,13.59-13.15,13.59
				c-1.7,0-14.62-3.78-16.56-5.71C355.13,1221.47,358.07,1215.91,360.62,1213.36z"/>
			<path class="st13" d="M403.01,1189.63c9.37-5.18,18.4-10.89,19.35-15.97c1.7-9.11-6.03-48.5-1.7-56.07
				c4.33-7.57,14.08-13.9,14.08-13.9c1.55,0,7.12,3.4,8.66,10.19c1.55,6.8-1.24,67.97-2.78,73.53
				c-0.73,2.61-11.32,13.01-23.21,18.47C413.75,1201.37,408.44,1192.64,403.01,1189.63z"/>
			<path class="st7" d="M306.54,1272.13l-37.34,9.78c0,0-10.98,7.92-15.91,9.49c-4.94,1.57-10.97,7.01-9.79,8.68
				c1.18,1.67,7.39-4,8.39-3.83c1.01,0.17-3.65,6.88-4.4,11.28c-0.76,4.4-2.27,8.67,0.26,8.33c2.52-0.35,4.35-10.26,4.35-10.26
				s3.88-7.49,4.51-6.61c0.63,0.88-2.59,6.03-2.59,6.03s-0.76,5.56-1.1,7.52c-0.25,1.46,1.09,5.84,2.24,4.23
				c0.67-0.95,0.36-4.56,1.14-6.62c1.6-4.23,4.22-7.59,4.22-7.59s-2.81,12.67-1.04,12.98c1.76,0.3,3.59-10.2,3.59-10.2
				s4.31-8.74,6.19-9.52c1.88-0.78,7.05-4.11,11.05-5.5c4-1.39,20.52,3.18,27.9,3.28c7.37,0.1,19.34-4.47,20.33-10.25
				c0.3-1.77-0.8-3.72-2.48-5.58C321.17,1272.36,313.59,1270.28,306.54,1272.13z"/>
			<path class="st16" d="M303.4,1201.16c0,0,11.3-2.01,21.52,16.38c10.23,18.4,3.61,65.8,3.61,65.8l-21.99-11.22L303.4,1201.16z"/>
			<path class="st7" d="M353.71,1217.03c-1.33,0-8.28,0.44-9.37-0.66c-1.09-1.09,3.6-3.88,4.07-3.41c0.47,0.47,2.46-0.57,3.12,0.1
				c0.66,0.66,2.65-0.09,3.22,0.47C355.31,1214.1,355.03,1217.03,353.71,1217.03z"/>
			<path class="st7" d="M423.65,1084.62c0,0-2.38,13.07-1.9,18.23c0.48,5.16-1.81,21.78-12.08,21.83
				c-10.27,0.05-3.29-17.25-2.32-22.31c0.97-5.05,2.54-24.57,2.54-24.57L423.65,1084.62z"/>
			<path class="st11" d="M409.25,1085.21c0.16-4.28,0.93-7.68,0.93-7.68l13.47,7.1c0,0-0.49,2.67-0.97,6.08
				C416.65,1091.99,411.86,1089.17,409.25,1085.21z"/>
			<path class="st7" d="M423.95,1046.65c0,0,5.79,2.06,8.94,8.35c3.15,6.29,4.19,23.9-8.51,30.67
				c-12.69,6.77-21.07-5.71-20.28-16.89C404.89,1057.59,408.41,1042.94,423.95,1046.65z"/>
			<path class="st7" d="M400.33,1065.66c-0.33,2.9,0.69,5.37,2.29,5.52c1.6,0.15,3.17-2.08,3.5-4.97c0.33-2.9-0.69-5.37-2.29-5.52
				C402.23,1060.54,400.66,1062.76,400.33,1065.66z"/>
			<path class="st7" d="M431.76,1070.54c-1.12,2.81-0.56,5.75,1.24,6.58c1.8,0.83,4.17-0.78,5.28-3.58
				c1.12-2.81,0.56-5.75-1.24-6.58C435.24,1066.13,432.88,1067.73,431.76,1070.54z"/>
		</g>
		<g>
			<polygon class="st9" points="1055.69,567.35 1080.47,601.35 1096.87,583.41 			"/>
			<polygon class="st13" points="1099.09,574.01 1096.87,583.41 1055.69,567.35 			"/>
			<polygon class="st13" points="1096.87,587 1055.69,567.35 1093.96,601.35 			"/>
			<path class="st2" d="M1121.88,627.74c-0.3-0.03-7.54-0.77-16.71-6.48c-9.21-5.73-12.66-15.74-12.66-17.35
				c0-0.61,0.5-1.11,1.11-1.11c0.61,0,1.1,0.49,1.11,1.09c0.1,1.07,3.04,10.15,11.61,15.48c8.7,5.41,15.68,6.15,15.75,6.16
				c0.61,0.06,1.06,0.6,1,1.21C1123.03,627.35,1122.49,627.8,1121.88,627.74z M1094.73,603.9c0,0,0,0.01,0,0.01
				C1094.73,603.91,1094.73,603.9,1094.73,603.9z"/>
			<path class="st2" d="M1166.89,637.8c-12.84-2.57-25.12-7.31-36.5-14.09c-9.37-5.58-16.93-14.08-26.5-18.81
				c-0.55-0.27-0.78-0.94-0.51-1.49c0.27-0.55,0.94-0.78,1.49-0.5c9.9,4.89,17.4,13.38,26.65,18.89
				c11.17,6.64,23.21,11.29,35.8,13.82c4.63,0.93,10.11,1.27,16.3,1.01c0.61-0.02,1.13,0.45,1.16,1.06
				c0.03,0.61-0.45,1.13-1.06,1.16C1178.22,639.08,1172.3,638.89,1166.89,637.8z"/>
		</g>
		<g>
			<g>
				<g>
					<path class="st7" d="M623.42,1027.53c0,0-27.25-48.64-33.88-58.98c-6.63-10.34-23.9-51.42-24.52-53.04
						c-0.62-1.62,11.89-21.06,9.1-21.73c-2.79-0.67-5.88,10.25-8.86,8.95c-2.98-1.3-11.68-27.58-13.38-26.28
						c-3.18,2.44,4.69,16.3,3,17.18c-1.69,0.87-6.82-15.25-10.15-14.78c-3.33,0.47,6.33,14.78,5.39,16.04
						c-0.93,1.26-10.95-12.22-12.76-9.34c-0.98,1.56,9.21,11.77,7.25,12.72c-1.96,0.96-11.03-5.63-11.99-3.73
						c-0.96,1.9,8.39,4.5,11.18,9.62c2.8,5.12,7.56,7.34,9.53,16.82c1.98,9.48,4.93,43.8,15.06,60.93
						c10.13,17.12,32.4,55.02,32.4,55.02L623.42,1027.53z"/>
					<g>
						<path class="st7" d="M744.2,1262.24c0,0-2.22-2.77-2.88-3.74c-0.78-1.14-2.86-4.76-2.86-4.76s-6.64-12.92-5.64-13.33
							c1-0.42,3.37,1.17,4.06,1.82c0.69,0.65,1.56,1.35,2.25,2.01c0.69,0.65,1.74,0.68,2.62-0.12c0.87-0.8-1.31-4-2.28-4.96
							c-3.04-2.98-12.76-9.32-13.76-10.03c-1.18-0.84-8.57-25.38-11.77-33.58c0,0,0,0,0,0c-4.83-13.58-9.12-27.79-9.63-29.23
							l-3.05-61.67l-23.04-7.68c0,0,2.42,68.49,2.93,71.9c0.24,1.62,13.89,32.24,13.9,32.23c7.67,14.65,14.46,27.54,15.7,30.06
							c0,0,1.67,8.51,2.42,13.99c0.74,5.48,3.63,10.23,4.08,11.73c0.07,0.22,1.32,5.5,5.12,10.96c3.28,4.71,2.33-1.29,2.33-1.29
							s-4.5-9.84-3.66-10.07c0.65-0.18,2.79,5.34,6.36,10.59c0.92,1.35,1.83,2.68,2.68,3.89c2.22,3.18,4.82,2.7,3.02-1.01
							c-0.63-1.31-1.74-3.46-2.74-4.88c-1.09-1.53-1.59-3.3-2.3-4.73c-1.42-2.84-2.49-4.9-2.34-4.89c0.19,0,0.31-0.76,1.33,0.64
							c1.23,1.69,3.04,5.86,5.03,8.19c1.13,1.32,3.32,4.24,3.32,4.24s4.07,4.33,4.38,4.15c1.64-0.93-0.39-4.88-2.16-6.47
							c-0.6-1.6-3-4.6-3-4.6s-3.48-7.17-2.47-7.7c0.83-0.43,12.48,15.1,14.06,14.04C747.49,1267.07,744.2,1262.24,744.2,1262.24z"/>
					</g>
					<path class="st15" d="M702.99,1021.97c0.56-13.45-1.42-26.74-7.44-39.26c-5.18-10.78-17.99-16.89-29.68-16.91
						c-37.1-0.05-41.82,48.98-65.44,67.89c-7.22,5.78-15.28,10.48-22.11,16.72c-25.22,23.01-13.86,65.6,9.3,85.77
						c16.07,14,41.32,21.95,61.12,11.01c10.34-5.71,18.19-15.21,23.78-25.61c7.93-14.77,13.05-31.8,18.69-47.54
						C697.22,1057.29,702.25,1039.85,702.99,1021.97z"/>
					<path class="st7" d="M587.01,1455.08c0,0-2.61,18.1-7.11,23.93c-1.51,1.96-4.27,4.44-6.08,7.98
						c-2.82,5.51-1.26,13.72,0.82,18.24c1.07,2.32-0.07,2.31,2.35,3.06c7.19,2.21,14.85-1.52,17.91-8.39
						c1.71-3.84,3.21-8.96,3.51-15.42c0.77-16.43,5.89-24.78,5.89-24.78L587.01,1455.08z"/>
					<path class="st7" d="M665.68,1463.35c0,0,1.61,20.4,0.3,27.04c-0.7,3.55-4.61,10.86-2.82,14.2c1.79,3.34,3.84,4.18,3.84,4.18
						l46.44,0.75c2.53,0.04,0.86-1.58-1.18-3.08c-3.34-2.45-6.03-4.07-16.7-9.22c-0.7-0.33-3.23-1.94-4.14-2.5
						c-2.32-1.41-4.64-3.63-6.64-5.86c-3.33-3.71-3.63-21.67-3.63-21.67L665.68,1463.35z"/>
					<path class="st10" d="M701.98,1192.12c0,0,5.85,33.13,2.01,54.85c-3.84,21.72-22.27,223.04-22.27,223.04l-20.48,1.15
						c0,0-4.29-84.1-3.52-95.79c0.77-11.7,6.85-31.27,6.85-31.27l-2.04-67.9l25.85-89.2L701.98,1192.12z"/>
					<path class="st9" d="M641.79,1185.15c0,0-16.13,24.22-19.97,44.27c-3.84,20.05,2.82,81.66-4.57,107.94
						c-4,14.22-19.15,36.19-21.46,54.56c-2.3,18.38-11.34,66.52-11.34,66.52l20.47,4.05l47.58-120.23l37.32-108.67l9.56-55.97
						L641.79,1185.15z"/>
					<path class="st6" d="M654.84,1047.32c0,0-21.35-1.36-29.8,7.83c-8.45,9.19,18.74,81.88,20.28,93.58
						c1.54,11.69-7.83,42.79-7.83,42.79s50.16,10.07,64.5,0.61c0,0,1.54-84.1,0-92.45c-1.54-8.35-14.33-42.33-17.41-45.67
						C681.5,1050.66,654.84,1047.32,654.84,1047.32z"/>
					<path class="st7" d="M661.95,1018.84c0,0-0.11,0.63-0.31,1.7c-0.95,5.12-4.62,22.12-7.09,26.79
						c-2.99,5.65,10.25,23.66,22.99,21.46c3.79-0.65-3.21-16.55-2.87-18.23c0.64-3.22,1.52-7.62,2.41-12.13
						c0.5-2.54,1.01-5.12,1.5-7.55c1.36-6.89,2.47-12.52,2.47-12.52L661.95,1018.84z"/>
					<path class="st11" d="M661.64,1020.54c0.2-1.07,0.31-1.7,0.31-1.7l19.1-0.47c0,0-1.11,5.63-2.47,12.52
						c-0.48,2.41-0.98,4.97-1.49,7.5c-2.95-0.43-6.03-1.86-9.12-4.56c-3.37-2.94-5.57-6.48-6.91-10.25
						C661.3,1022.37,661.49,1021.33,661.64,1020.54z"/>
					<path class="st7" d="M674.8,975.52c0,0-9-1.04-14.64,6.24c-5.64,7.28-11.72,29.8,2.29,42.05
						c14.01,12.24,27.86-1.62,29.92-16.31C694.42,992.81,695.22,974.99,674.8,975.52z"/>
					<path class="st7" d="M696.52,1007.29c-1.67,3.25-4.48,5.04-6.27,4.01c-1.79-1.03-1.89-4.49-0.21-7.74
						c1.67-3.25,4.48-5.04,6.27-4.01C698.09,1000.58,698.19,1004.04,696.52,1007.29z"/>
					<path class="st15" d="M675.81,973.12c0,0-12.02,21.41-20.63,22.41c-8.6,0.99-9.73,12.37-9.73,12.37s3.08-26.22,11.59-31.28
						C665.56,971.56,675.81,973.12,675.81,973.12z"/>
					<path class="st9" d="M596.29,1496.29c-11.16,2.03-18.58-4.48-22.44-9.36c-2.84,5.52-4.22,13.77-2.13,18.31
						c1.84,4,7.21,3.88,11.43,4.04c4.47,0.17,7.93-2.31,10.15-6.2C594.33,1501.26,595.4,1499.01,596.29,1496.29z"/>
					<path class="st9" d="M691.43,1494.71c-12.28,3.14-21.36,1.01-26.44-1.04c-1.31,3.7-3.05,8.35-2.13,11.03
						c1.13,3.28,2.73,4.02,4.15,4.06c11.22,0.29,41.1,0.69,49.65,0.81c1.2,0.01,1.85-1.38,1.09-2.29
						C715.63,1504.75,692.34,1495.27,691.43,1494.71z"/>
					<path class="st7" d="M657.44,1000.9c0.7,3.8-0.71,7.29-3.14,7.79c-2.44,0.5-4.98-2.18-5.68-5.98c-0.7-3.8,0.71-7.29,3.14-7.79
						C654.2,994.42,656.74,997.1,657.44,1000.9z"/>
					<path class="st6" d="M615.88,1011.76c0,0,30.14,32.35,34.63,45.39c4.48,13.04-4.37,31.69-16.59,32.5
						c-12.22,0.81-39.42-57.42-39.42-57.42L615.88,1011.76z"/>
				</g>
			</g>
		</g>
		<g>
			<path class="st13" d="M650.11,602.79l-34.04,7.41c-8.16,1.78-16.23-3.4-18-11.57l-3.17-14.57c-1.78-8.16,3.4-16.23,11.57-18
				l34.04-7.41c8.17-1.78,16.23,3.4,18,11.56l3.17,14.57C663.45,592.95,658.27,601.01,650.11,602.79z"/>
			<polygon class="st13" points="598.38,590.72 583.79,614.29 606.17,604.65 			"/>
			<g>
				<path class="st21" d="M614.85,584.14l5.68-1.39c0,0,5.97-6.98,5.76-8.93c-0.21-1.95-2.29-5.69-1.29-6.45
					c1-0.75,3.27-1.68,5.33,0.49c1.49,1.58,2.09,8.43,2.86,8.72c0.48,0.18,3.77-0.52,6.16-1.08c1.57-0.37,3.22,0.17,4.27,1.4l0,0
					c0.71,0.83,0.75,2.04,0.08,2.91l-1.03,1.35l1.3,1.1c0.97,0.82,1.09,2.27,0.28,3.24l-0.83,0.99l0.86,0.63
					c1.11,0.81,1.28,2.4,0.35,3.42l-0.75,0.83l0.19,0.22c0.79,0.9,0.76,2.25-0.07,3.12l-0.76,0.8l-15.12,3.69
					c-1.42,0.35-2.89,0.4-4.33,0.16l-5.53,0.42c-0.59,0.04-1.13-0.35-1.27-0.93l-3.03-13.28
					C613.81,584.94,614.21,584.3,614.85,584.14z"/>
			</g>
		</g>
		<g>
			<path class="st2" d="M756.68,430.22c30.49,5.68,52.39,25.47,48.9,44.2c-1.74,9.37-9.5,16.7-20.64,20.97l7.23,29.92L770.12,499
				c-8.05,1-16.93,0.76-26.08-0.94c-30.5-5.68-52.39-25.47-48.9-44.2C698.63,435.13,726.18,424.55,756.68,430.22z"/>
			<g>
				<path class="st3" d="M770.64,471.39c-4.68,9.75-16.37,13.85-26.12,9.17c-9.74-4.68-13.85-16.38-9.17-26.12
					c4.68-9.75,16.37-13.85,26.12-9.17C771.22,449.95,775.32,461.64,770.64,471.39z"/>
				<path class="st22" d="M742.22,461.18c-2.5,5.21-0.31,11.46,4.9,13.97c5.21,2.5,11.46,0.31,13.96-4.9L742.22,461.18z"/>
			</g>
		</g>
		<polygon class="st13" points="1202.47,993.15 1195.72,993.83 1193.42,983.1 1183.43,982.89 1180.4,975.14 1176.48,976.67 
			1180.53,987.04 1190,987.24 1192.39,998.4 1202.54,997.38 		"/>
		<g>
			<polygon class="st6" points="1163.58,822.76 1147.8,815.84 1144.21,826.74 1138.99,825.02 1144.47,808.38 1160.16,815.25 
				1164.16,802.36 1178.6,808.38 1184.53,795.7 1189.51,798.03 1181.34,815.48 1167.62,809.76 			"/>
		</g>
	</g>
</g>
</svg>
